<?xml version="1.0" encoding="utf-8"?>
<svg width="81.774" height="122.664" viewBox="0 0 81.774 122.664" fill="none" xmlns="http://www.w3.org/2000/svg">
  <g id="Group" transform="scale(1 1)">
    <path id="Path" d="M0.575986 5.19985C0.998974 4.88186 0.970983 6.01583 1.82007 5.99983C3.3845 4.26389 4.67523 0.859978 0.575986 0C-0.500144 0.931961 0.190321 4.15188 0.575986 5.19985C0.575986 5.19985 0.575986 5.19985 0.575986 5.19985Z" fill="#A06619" transform="matrix(0.998 0.07 -0.07 0.998 0.419 112.678)" />
    <path id="Path" d="M1.19209e-07 0.124825C1.19209e-07 0.124825 0.0457611 0.254471 1.19209e-07 0.315491C2.51298 1.13535 1.72172 4.38051 0.762666 6.03549C0.242147 6.05075 0.259307 4.96966 0 5.27283C0.0724542 5.57599 0.0419469 5.7514 0.190667 6.03549C0.297439 6.18611 0.617761 6.31387 0.762666 6.41682C1.1154 5.85245 1.18404 5.11266 1.716 4.70082C1.716 4.70082 1.70075 4.60358 1.716 4.51015C1.87425 3.55301 2.02679 2.60731 1.716 1.65015C1.50245 1.20972 0.735973 -0.46624 1.19209e-07 0.124825C1.19209e-07 0.124825 1.19209e-07 0.124825 1.19209e-07 0.124825Z" fill="none" stroke-width="0.3" stroke="#B37C13" transform="matrix(1 0 -0 1 1.206 112.775)" />
    <path id="Path" d="M0.353101 4.95733C0.612408 4.65416 0.595248 5.73524 1.11577 5.71999C2.07482 4.06501 2.86609 0.819862 0.353101 0C-0.306607 0.888496 0.116673 3.95824 0.353101 4.95733C0.353101 4.95733 0.353101 4.95733 0.353101 4.95733Z" fill="none" stroke-width="0.3" stroke="#A06619" transform="matrix(1 0 -0 1 1.206 113.775)" />
    <path id="Path" d="M0 2.86001C0.663523 2.04395 0.402309 0.833214 0 0C0.31079 0.957153 0.158255 1.90285 0 2.86001C0 2.86001 0 2.86001 0 2.86001Z" fill="none" stroke-width="0.3" stroke="#D39D03" transform="matrix(1 0 -0 1 3.206 114.775)" />
    <path id="Path" d="M0 1.33467C0.144906 1.61305 0.337481 1.71028 0.572 1.90668C0.518614 1.57301 1.42428 0.430908 1.52533 0C0.993375 0.411835 0.924735 1.15163 0.572 1.71601C0.427094 1.61305 0.106773 1.4853 0 1.33467C0 1.33467 0 1.33467 0 1.33467Z" fill="none" stroke-width="0.3" stroke="#D09F2A" transform="matrix(1 0 -0 1 2.206 117.775)" />
    <path id="Path Subtract" d="M24.2623 89.9226C26.0985 87.8576 27.8469 85.7451 29.5533 83.5829C31.6297 81.5065 33.0902 79.1899 34.749 76.7666C36.4097 74.3451 38.0761 71.9236 39.4528 69.2677C40.8313 66.6117 42.4024 64.1845 43.4587 61.2616C44.513 58.3367 45.9888 55.5854 46.8601 52.4604C47.7315 49.3354 48.2044 45.6955 48.7687 42.357C49.2542 39.4849 48.7704 35.3289 48.406 32.1988C48.3468 31.6903 48.2907 31.2089 48.2425 30.7644C47.8993 27.5822 46.6199 24.2875 45.4206 21.5743C44.2213 18.8611 41.9943 16.4244 40.755 14.0372C40.4275 13.4078 39.9239 12.7309 39.4014 12.0286C37.944 10.0693 36.3395 7.9125 37.9999 6.03877C40.2574 3.49527 42.0115 2.74214 44.7495 0.585699C47.4269 -1.52496 49.5574 2.57103 50.7789 4.91948C50.8065 4.97254 50.8337 5.02471 50.8603 5.0759C52.0692 7.39059 53.6994 10.4889 55.3505 12.7884C56.8854 14.9233 59.5494 16.1346 61.7143 17.6017C60.2116 22.8247 60.4872 28.8235 62.9028 34.5143C66.3495 42.6341 73.2734 48.0555 80.6802 49.3473C80.7992 51.1513 80.8427 53.0128 80.8427 54.9829C79.5785 68.0474 72.0167 80.3892 64.2547 90.8282C60.0752 95.0076 57.2076 99.9364 52.5763 103.937C47.945 107.937 43.7141 111.308 38.3679 114.324C33.0216 117.34 27.2081 120.525 21.0153 121.758C14.8243 122.992 6.006 123.611 0.762666 119.238C0.73293 119.052 1.00073 118.615 1.26131 118.19C1.46856 117.852 1.67123 117.522 1.716 117.331C1.716 117.331 1.70075 117.234 1.716 117.14C2.37952 116.324 2.11831 115.113 1.716 114.28C1.70792 114.264 1.69906 114.245 1.68943 114.225C1.44453 113.716 0.708141 112.186 0 112.755C0.924735 110.19 4.58363 109.243 6.33967 107.273C8.09571 105.304 10.7631 103.719 12.6317 101.744C14.5002 99.7686 16.649 98.0412 18.5423 96.0239C20.4357 94.0066 22.4243 91.9875 24.2623 89.9226Z" fill="#FED005" fill-rule="evenodd" transform="translate(0.931 0)" />
    <path id="Path" d="M1.19209e-07 0.124825C1.19209e-07 0.124825 0.0457611 0.254471 1.19209e-07 0.315491C2.51298 1.13535 1.72172 4.38051 0.762666 6.03549C0.242147 6.05075 0.259307 4.96966 0 5.27283C0.0724542 5.57599 0.0419469 5.7514 0.190667 6.03549C0.297439 6.18611 0.617761 6.31387 0.762666 6.41682C1.1154 5.85245 1.18404 5.11266 1.716 4.70082C1.716 4.70082 1.70075 4.60358 1.716 4.51015C1.87425 3.55301 2.02679 2.60731 1.716 1.65015C1.50245 1.20972 0.735973 -0.46624 1.19209e-07 0.124825C1.19209e-07 0.124825 1.19209e-07 0.124825 1.19209e-07 0.124825Z" fill="#B37C13" transform="matrix(1 0 -0 1 1.206 112.775)" />
    <path id="Path" d="M0 2.86001C0.663523 2.04395 0.402309 0.833214 0 0C0.31079 0.957153 0.158255 1.90285 0 2.86001C0 2.86001 0 2.86001 0 2.86001Z" fill="#D39D03" transform="matrix(1 0 -0 1 3.206 114.775)" />
    <path id="Path" d="M0 1.33467C0.144906 1.61305 0.337481 1.71028 0.572 1.90668C0.518614 1.57301 1.42428 0.430908 1.52533 0C0.993375 0.411835 0.924735 1.15163 0.572 1.71601C0.427094 1.61305 0.106773 1.4853 0 1.33467C0 1.33467 0 1.33467 0 1.33467Z" fill="#D09F2A" transform="matrix(1 0 -0 1 2.206 117.775)" />
  </g>
</svg>