<?xml version="1.0" encoding="utf-8"?>
<svg width="470.424" height="122.964" viewBox="0 0 470.424 122.964" fill="none" xmlns="http://www.w3.org/2000/svg">
  <g id="Group" transform="translate(0.15 0.15)">
    <g transform="translate(120.274 20.775)">
      <path d="M4.672 62.656Q3.136 62.656 2.432 61.952Q1.728 61.248 1.728 59.712L1.728 52.224Q1.728 51.392 1.952 50.816Q2.176 50.24 2.624 49.856L9.024 44.48Q5.632 43.456 3.68 40.992Q1.728 38.528 1.728 33.92L1.728 27.2Q1.728 24.32 2.688 22.08Q3.648 19.84 5.44 18.304L13.76 11.328Q15.488 9.92001 18.048 9.12Q20.608 8.32001 23.872 8.32L41.792 8.32Q43.328 8.32 44.032 9.024Q44.736 9.728 44.736 11.264L44.736 18.88Q44.736 19.712 44.512 20.288Q44.288 20.864 43.84 21.248L38.08 26.048Q42.112 26.944 44.576 29.408Q47.04 31.872 47.04 37.056L47.04 43.776Q47.04 46.656 46.08 48.896Q45.12 51.136 43.264 52.672L35.008 59.584Q33.216 61.056 30.656 61.856Q28.096 62.656 24.896 62.656L4.672 62.656ZM33.152 55.04Q39.296 55.04 42.848 52.128Q46.4 49.216 46.4 43.776L46.4 37.056Q46.4 31.68 43.648 29.376Q40.896 27.072 36.416 26.432L26.88 25.152Q26.048 25.088 25.6 24.512Q25.152 23.936 25.152 23.104Q25.152 22.272 25.6 21.728Q26.048 21.184 26.88 21.184L41.792 21.184Q43.008 21.184 43.552 20.64Q44.096 20.096 44.096 18.88L44.096 11.264Q44.096 10.048 43.552 9.504Q43.008 8.96 41.792 8.96L23.872 8.96Q17.664 8.96 14.144 11.872Q10.624 14.784 10.624 20.224L10.624 26.944Q10.624 32.32 13.344 34.624Q16.064 36.928 20.544 37.568L30.144 38.912Q30.976 38.976 31.392 39.488Q31.808 40 31.808 41.088Q31.808 41.856 31.392 42.4Q30.976 42.944 30.144 42.944L12.928 42.944Q11.712 42.944 11.168 43.488Q10.624 44.032 10.624 45.248L10.624 52.736Q10.624 53.952 11.168 54.496Q11.712 55.04 12.928 55.04L33.152 55.04ZM38.336 14.72L38.336 15.36L24.128 15.36Q21.44 15.36 19.84 16.832Q18.24 18.304 18.24 20.544L18.24 25.792Q18.24 28.032 19.136 28.928Q20.032 29.824 21.504 30.08L35.008 32.832Q36.928 33.216 38.176 34.496Q39.424 35.776 39.424 39.104L39.424 42.816Q39.424 45.632 37.504 47.456Q35.584 49.28 32.32 49.28L16.384 49.28L16.384 48.64L32.32 48.64Q35.264 48.64 37.024 47.008Q38.784 45.376 38.784 42.816L38.784 39.104Q38.784 36.096 37.728 34.976Q36.672 33.856 34.88 33.472L21.376 30.72Q19.712 30.4 18.656 29.408Q17.6 28.416 17.6 25.792L17.6 20.544Q17.6 17.984 19.392 16.352Q21.184 14.72 24.128 14.72L38.336 14.72ZM82.816 32.96Q83.84 32.96 84.448 33.568Q85.056 34.176 85.952 35.968L91.84 47.744Q92.16 48.384 92.64 48.512Q93.12 48.64 93.568 48.64L93.888 48.64Q94.4 48.64 94.848 48.224Q95.296 47.808 95.36 47.296L96.96 40Q97.216 38.784 97.248 36.864Q97.28 34.944 97.28 33.536L97.28 14.72L97.92 14.72L97.92 33.6Q97.92 35.008 97.888 36.928Q97.856 38.848 97.6 40.064L96 47.296Q95.744 48.32 95.2 48.8Q94.656 49.28 93.888 49.28L93.44 49.28Q92.864 49.28 92.256 49.056Q91.648 48.832 91.328 48.192L85.44 36.288Q84.608 34.624 84.096 34.112Q83.584 33.6 82.816 33.6L81.216 33.6Q80.448 33.6 79.936 34.112Q79.424 34.624 78.592 36.288L72.704 48.192Q72.384 48.832 71.776 49.056Q71.168 49.28 70.592 49.28L70.144 49.28Q69.376 49.28 68.832 48.8Q68.288 48.32 68.032 47.296L66.432 40.064Q66.176 38.848 66.144 36.928Q66.112 35.008 66.112 33.6L66.112 14.72L66.752 14.72L66.752 33.536Q66.752 34.944 66.784 36.864Q66.816 38.784 67.072 40L68.672 47.296Q68.736 47.808 69.184 48.224Q69.632 48.64 70.144 48.64L70.464 48.64Q70.912 48.64 71.392 48.512Q71.872 48.384 72.192 47.744L78.08 35.968Q78.976 34.176 79.584 33.568Q80.192 32.96 81.216 32.96L82.816 32.96ZM92.864 8.96Q91.648 8.96 91.104 9.504Q90.56 10.048 90.56 11.264L90.56 34.816L86.848 26.752Q86.336 25.664 85.504 25.216Q84.672 24.768 83.456 24.768L80.768 24.768Q79.552 24.768 78.72 25.216Q77.888 25.664 77.376 26.752L73.664 34.816L73.664 11.264Q73.664 10.048 73.12 9.504Q72.576 8.96 71.36 8.96L61.504 8.96Q60.288 8.96 59.744 9.504Q59.2 10.048 59.2 11.264L59.2 35.968Q59.2 38.016 59.36 39.776Q59.52 41.536 60.352 43.904L63.552 52.736Q63.872 53.76 64.608 54.4C65.0987 54.8267 65.6853 55.04 66.368 55.04L74.816 55.04C75.4987 55.04 76.0747 54.88 76.544 54.56Q77.248 54.08 77.504 53.12L80.512 42.688Q80.704 42.048 80.992 41.824Q81.28 41.6 81.664 41.6L82.24 41.6Q82.624 41.6 82.912 41.824Q83.2 42.048 83.392 42.688L86.336 53.12Q86.592 54.144 87.424 54.592C87.9787 54.8907 88.5973 55.04 89.28 55.04L97.792 55.04Q98.816 55.04 99.424 54.368Q100.032 53.696 100.352 52.736L103.552 44.032Q104.384 41.664 104.544 39.904Q104.704 38.144 104.704 36.096L104.704 11.264Q104.704 10.048 104.16 9.504Q103.616 8.96 102.4 8.96L92.864 8.96ZM68.8 61.888Q68.352 62.208 67.776 62.432Q67.2 62.656 66.56 62.656L58.112 62.656Q56.896 62.656 56 61.888Q55.104 61.12 54.72 59.904L51.52 51.072Q50.624 48.704 50.464 46.88Q50.304 45.056 50.304 42.944L50.304 18.24Q50.304 17.408 50.528 16.832Q50.752 16.256 51.2 15.872L59.456 8.896Q59.776 8.64 60.32 8.48Q60.864 8.32001 61.504 8.32L71.36 8.32Q72.896 8.32 73.6 9.024Q74.304 9.728 74.304 11.264L74.304 27.968L77.888 24.96Q78.4 24.512 79.136 24.32Q79.872 24.128 80.768 24.128L81.664 24.128L81.664 18.24Q81.664 17.408 81.856 16.832Q82.048 16.256 82.432 15.936L82.496 15.872L90.816 8.896Q91.136 8.64 91.648 8.48Q92.16 8.32001 92.864 8.32L102.4 8.32Q103.936 8.32 104.64 9.024Q105.344 9.728 105.344 11.264L105.344 36.096Q105.344 38.208 105.184 40.032Q105.024 41.856 104.128 44.224L100.928 52.928Q100.736 53.568 100.416 54.08Q100.096 54.592 99.648 55.04L91.392 61.888Q91.008 62.272 90.56 62.464Q90.112 62.656 89.536 62.656L81.024 62.656Q79.744 62.656 78.784 62.08Q77.824 61.504 77.44 60.288L76.16 55.744L68.8 61.888ZM143.104 62.656L113.408 62.656Q111.872 62.656 111.168 61.952Q110.464 61.248 110.464 59.712L110.464 18.24Q110.464 17.408 110.688 16.832Q110.912 16.256 111.36 15.872L119.616 8.896Q119.936 8.64 120.48 8.48Q121.024 8.32001 121.664 8.32L151.36 8.32Q152.896 8.32 153.6 9.024Q154.304 9.728 154.304 11.264L154.304 18.752Q154.304 19.584 154.08 20.16Q153.856 20.736 153.408 21.12L147.904 25.664Q148.544 25.984 148.832 26.624Q149.12 27.264 149.12 28.288L149.12 35.136Q149.12 35.968 148.896 36.544Q148.672 37.12 148.224 37.504L142.528 42.304L151.36 42.304Q152.896 42.304 153.6 43.008Q154.304 43.712 154.304 45.248L154.304 52.736Q154.304 53.568 154.08 54.144Q153.856 54.72 153.408 55.104L145.088 62.016Q144.832 62.272 144.288 62.464Q143.744 62.656 143.104 62.656ZM151.36 55.04Q152.576 55.04 153.12 54.496Q153.664 53.952 153.664 52.736L153.664 45.248Q153.664 44.032 153.12 43.488Q152.576 42.944 151.36 42.944L133.696 42.944L133.696 37.44L146.176 37.44Q147.392 37.44 147.936 36.896Q148.48 36.352 148.48 35.136L148.48 28.288Q148.48 27.072 147.936 26.528Q147.392 25.984 146.176 25.984L133.696 25.984L133.696 21.056L151.36 21.056Q152.576 21.056 153.12 20.512Q153.664 19.968 153.664 18.752L153.664 11.264Q153.664 10.048 153.12 9.504Q152.576 8.96 151.36 8.96L121.664 8.96Q120.448 8.96 119.904 9.504Q119.36 10.048 119.36 11.264L119.36 52.736Q119.36 53.952 119.904 54.496Q120.448 55.04 121.664 55.04L151.36 55.04ZM147.904 48.64L147.904 49.28L126.336 49.28L126.336 14.72L147.904 14.72L147.904 15.36L126.976 15.36L126.976 31.424L142.72 31.424L142.72 32.064L126.976 32.064L126.976 48.64L147.904 48.64ZM194.24 62.656L174.08 62.656Q165.696 62.656 161.696 58.304Q157.696 53.952 157.696 47.04L157.696 28.992Q157.696 25.472 158.72 22.912Q159.744 20.352 161.728 18.624L169.984 11.648Q171.968 9.984 175.072 9.152Q178.176 8.32 182.336 8.32L198.336 8.32Q199.872 8.32 200.576 9.024Q201.28 9.728 201.28 11.264L201.28 19.008Q201.28 19.84 201.056 20.416Q200.832 20.992 200.384 21.376L192.064 28.288Q191.808 28.544 191.264 28.736Q190.72 28.928 190.08 28.928L181.76 28.928L181.76 38.144Q181.824 38.016 181.984 37.856Q182.144 37.696 182.272 37.568L190.528 30.592Q190.848 30.336 191.392 30.176Q191.936 30.016 192.576 30.016L202.496 30.016Q204.032 30.016 204.736 30.72Q205.44 31.424 205.44 32.96L205.44 52.736Q205.44 53.568 205.216 54.144Q204.992 54.72 204.544 55.104L196.224 62.016Q195.968 62.272 195.424 62.464Q194.88 62.656 194.24 62.656ZM202.496 55.04Q203.712 55.04 204.256 54.496Q204.8 53.952 204.8 52.736L204.8 32.96Q204.8 31.744 204.256 31.2Q203.712 30.656 202.496 30.656L192.576 30.656Q191.36 30.656 190.816 31.2Q190.272 31.744 190.272 32.96L190.272 42.944L184.064 42.944Q182.592 42.944 181.856 42.176Q181.12 41.408 181.12 39.808L181.12 24.512Q181.12 22.912 182.08 22.112Q183.04 21.312 185.024 21.312L198.336 21.312Q199.552 21.312 200.096 20.768Q200.64 20.224 200.64 19.008L200.64 11.264Q200.64 10.048 200.096 9.504Q199.552 8.96 198.336 8.96L182.336 8.96Q174.336 8.96 170.464 12.16Q166.592 15.36 166.592 22.016L166.592 41.984Q166.592 48.64 170.464 51.84C173.045 53.9733 177.003 55.04 182.336 55.04L202.496 55.04ZM185.088 49.28Q181.568 49.28 179.328 48.832Q177.088 48.384 175.808 47.392Q174.528 46.4 174.048 44.832Q173.568 43.264 173.568 41.024L173.568 23.104Q173.568 18.56 175.616 16.64Q177.664 14.72 183.808 14.72L194.88 14.72L194.88 15.36L183.808 15.36Q178.176 15.36 176.192 17.12Q174.208 18.88 174.208 23.104L174.208 41.024Q174.208 45.184 176.416 46.912Q178.624 48.64 185.088 48.64L197.184 48.64L197.184 36.416L197.824 36.416L197.824 49.28L185.088 49.28Z" transform="translate(0 2.56)" fill="#FFFFFF" />
      <path d="M5.376 52.288Q4.032 52.288 3.104 51.904Q2.176 51.52 2.048 51.264Q1.984 51.136 2.048 51.04Q2.112 50.944 2.24 51.072Q2.624 51.328 3.712 51.328Q4.928 51.328 6.784 50.656Q8.64 49.984 10.752 47.936Q12.48 46.208 14.272 43.68Q16.064 41.152 18.112 38.208Q16 37.76 14.176 36.832Q12.352 35.904 11.776 34.112Q11.648 33.6 11.84 33.6Q12.032 33.6 12.16 33.92Q12.608 34.624 14.08 34.848Q15.552 35.072 17.088 35.072Q18.048 35.072 18.912 35.008Q19.776 34.944 20.224 34.944L20.416 34.944Q23.68 30.4 27.84 25.888Q32 21.376 37.504 18.304Q41.152 16.256 44.768 15.456Q48.384 14.656 51.712 14.656Q55.104 14.656 57.504 16.352Q59.904 18.048 59.904 20.864Q59.904 24.192 55.936 28.096Q51.968 32 43.584 35.072Q38.912 36.8 33.696 37.856Q28.48 38.912 23.36 38.72Q22.528 38.72 21.568 38.656Q20.608 38.592 19.52 38.4Q17.216 41.92 15.232 44.896Q13.248 47.872 11.456 49.6Q9.856 51.136 8.192 51.712Q6.528 52.288 5.376 52.288ZM22.016 34.752Q26.368 34.24 31.136 32.96Q35.904 31.68 40.064 30.144Q48.128 27.2 51.68 24.16Q55.232 21.12 55.232 18.88Q55.232 17.216 53.76 16.448Q52.288 15.68 50.368 15.68Q47.872 15.68 44.576 16.416Q41.28 17.152 37.888 18.944Q33.024 21.504 29.12 25.824Q25.216 30.144 22.016 34.752ZM44.352 61.952Q43.904 61.952 44.096 61.312Q44.16 61.12 44.16 60.8Q44.16 59.52 41.856 58.4Q39.552 57.28 35.392 56.608Q31.232 55.936 25.536 55.936Q22.016 55.936 18.688 56.224Q15.36 56.512 12.544 57.152C11.2213 57.4507 9.80267 57.8347 8.288 58.304Q6.016 59.008 3.968 59.616Q1.92 60.224 0.448 60.224Q-0.512 60.224 -1.12 59.872Q-1.728 59.52 -1.728 58.496Q-1.728 57.024 0.16 55.264Q2.048 53.504 6.656 52.288Q10.432 51.2 13.568 50.944Q16.704 50.688 19.84 50.688Q32.576 50.688 38.752 53.376Q44.928 56.064 44.928 60.224Q44.928 60.48 44.928 60.704Q44.928 60.928 44.864 61.248Q44.8 61.952 44.352 61.952ZM48.704 57.664Q46.72 57.664 45.632 56.416Q44.544 55.168 44.544 53.184Q44.544 51.328 45.536 49.088Q46.528 46.848 48.704 44.544Q50.944 42.112 54.272 40.608Q57.6 39.104 60.608 39.104Q63.04 39.104 64.768 40.16Q66.496 41.216 67.072 42.816Q67.776 42.816 68.832 43.2Q69.888 43.584 69.888 44.608Q69.888 45.312 69.184 46.208Q68.736 46.848 67.616 48.128Q66.496 49.408 65.536 50.88Q64.768 52.032 64.32 53.024Q63.872 54.016 63.872 54.72Q63.872 55.68 64.832 55.68Q65.92 55.68 68.096 54.464Q70.464 53.12 72.64 51.392Q74.816 49.664 76.032 48.64Q76.352 48.384 76.48 48.384Q76.736 48.384 76.736 48.704Q76.736 49.088 76.416 49.408Q75.84 49.92 74.176 51.328Q72.512 52.736 70.368 54.272Q68.224 55.808 66.176 56.768Q65.152 57.216 64.288 57.44Q63.424 57.664 62.72 57.664Q60.992 57.664 60.096 56.672Q59.2 55.68 59.2 54.08Q59.2 53.44 59.392 52.736Q59.584 52.032 59.84 51.328L60.288 50.24Q58.624 52.288 56.96 53.664Q55.296 55.04 53.632 56.064Q52.224 56.896 50.976 57.28Q49.728 57.664 48.704 57.664ZM50.688 56Q51.84 56 54.016 54.624Q56.192 53.248 59.072 50.368Q59.456 49.984 60.512 48.992Q61.568 48 62.784 46.752Q64 45.504 64.864 44.256Q65.728 43.008 65.728 42.176Q65.728 40.96 63.616 40.96Q61.76 40.96 59.168 42.4Q56.576 43.84 54.208 46.656Q51.776 49.536 50.656 51.616Q49.536 53.696 49.536 54.784Q49.536 56 50.688 56ZM85.504 58.688Q81.536 58.688 81.536 54.656Q81.536 53.952 81.632 53.216Q81.728 52.48 81.984 51.712Q80.96 53.312 80.064 54.496Q79.168 55.68 78.592 56.32Q77.184 57.92 75.776 57.92Q75.136 57.92 74.24 57.632Q73.344 57.344 72.512 56.576Q73.344 55.424 75.168 52.8Q76.992 50.176 78.976 47.104Q78.144 47.936 77.152 48.8Q76.16 49.664 75.328 50.368Q75.072 50.624 74.752 50.624Q74.496 50.624 74.496 50.368Q74.496 50.048 75.008 49.6Q76.352 48.448 77.568 47.328Q78.784 46.208 80.256 44.384Q81.728 42.56 83.712 39.36Q87.296 33.856 89.856 29.248Q92.416 24.64 93.184 22.08Q93.312 21.76 93.376 21.376Q93.44 20.992 93.44 20.608Q93.44 20.096 93.184 19.68Q92.928 19.264 92.224 19.2Q92.096 19.2 92.096 19.072Q92.096 18.944 92.224 18.944Q93.568 19.008 94.464 19.872Q95.36 20.736 95.616 22.848Q95.808 24.576 94.656 27.84Q93.504 31.104 91.52 35.104Q89.536 39.104 87.296 43.008Q89.6 40.704 92.16 39.264Q94.72 37.824 96.832 37.824Q98.752 37.824 99.904 39.04Q101.056 40.256 101.056 42.24Q101.056 44.416 99.84 47.008Q98.624 49.6 96.576 52.032Q94.08 54.976 91.04 56.832Q88 58.688 85.504 58.688ZM85.184 58.112Q86.848 58.112 88.96 56.704Q91.072 55.296 92.8 52.608Q94.08 50.624 94.656 48.768Q95.232 46.912 95.232 45.504Q95.232 43.776 94.464 42.816Q93.696 41.856 92.416 41.856Q90.752 41.856 88.64 43.296Q86.528 44.736 84.8 47.424Q83.52 49.344 82.912 51.2Q82.304 53.056 82.304 54.528Q82.304 58.112 85.184 58.112ZM105.216 58.304Q102.656 58.304 100.704 57.312Q98.752 56.32 97.856 53.632Q97.792 53.376 98.016 53.312Q98.24 53.248 98.304 53.568Q98.944 54.976 99.968 55.552Q100.992 56.128 102.208 56.128Q104.256 56.128 105.824 54.912Q107.392 53.696 108.64 51.84Q109.888 49.984 110.88 48.032Q111.872 46.08 112.768 44.672Q114.176 42.304 116.128 40.384Q118.08 38.464 119.68 38.016Q119.296 37.824 118.72 37.824Q117.12 37.824 115.2 38.784Q113.28 39.744 111.328 41.28Q109.376 42.816 107.552 44.512Q105.728 46.208 104.224 47.648Q102.72 49.088 101.824 49.92Q101.312 50.368 101.056 50.368Q100.8 50.368 100.8 50.112Q100.8 49.728 101.12 49.408Q103.04 47.744 105.088 45.664Q107.136 43.584 109.248 41.632Q111.36 39.68 113.536 38.4Q115.712 37.12 117.952 37.12Q118.208 37.12 118.432 37.12Q118.656 37.12 118.912 37.184Q119.616 37.248 120.224 37.568Q120.832 37.888 120.576 38.016Q119.104 38.656 118.272 40.576Q117.44 42.496 116.736 45.056Q116.032 47.616 115.04 50.24Q114.048 52.864 112.192 54.912Q113.088 54.592 115.008 53.44Q116.928 52.288 119.232 50.592Q121.536 48.896 123.52 46.848Q123.776 46.592 124.032 46.592Q124.352 46.592 124.352 46.912Q124.352 47.168 124.096 47.424Q122.368 49.088 120.256 50.976Q118.144 52.864 115.68 54.528Q113.216 56.192 110.592 57.248Q107.968 58.304 105.216 58.304Z" transform="translate(228.032 0)" fill="#FFFFFF" />
    </g>
    <path id="Path" d="M29.5533 83.5829C27.8469 85.7451 26.0985 87.8576 24.2623 89.9226C22.4243 91.9875 20.4357 94.0066 18.5423 96.0239C16.649 98.0412 14.5002 99.7686 12.6317 101.744C10.7631 103.719 8.09571 105.304 6.33967 107.273C4.58363 109.243 0.924735 110.19 0 112.755C0.735973 112.164 1.50245 113.84 1.716 114.28C2.11831 115.113 2.37952 116.324 1.716 117.14C1.70075 117.234 1.716 117.331 1.716 117.331C1.61495 117.762 0.70928 118.904 0.762667 119.238C6.006 123.611 14.8243 122.992 21.0153 121.758C27.2081 120.525 33.0216 117.34 38.3679 114.324C43.7141 111.308 47.945 107.937 52.5763 103.937C57.2076 99.9364 60.0752 95.0076 64.2547 90.8282C72.0167 80.3892 79.5785 68.0474 80.8427 54.9829C80.8427 48.7824 80.4118 43.6573 78.5547 38.0136C77.3192 35.4605 75.9845 32.4156 74.3161 30.0494C72.6478 27.6833 70.9356 25.5306 68.8783 23.4752C66.8191 21.4218 64.4415 19.578 62.205 17.9459C59.9666 16.3157 57.0036 15.0878 55.3505 12.7884C53.6994 10.4889 52.0692 7.39059 50.8603 5.0759C49.6534 2.7593 47.4874 -1.57265 44.7495 0.585699C42.0115 2.74214 40.2574 3.49527 37.9999 6.03877C35.7443 8.58417 39.5138 11.652 40.755 14.0372C41.9943 16.4244 44.2213 18.8611 45.4206 21.5743C46.6199 24.2875 47.8993 27.5822 48.2425 30.7644C48.5876 33.9447 49.3331 39.0184 48.7687 42.357C48.2043 45.6955 47.7315 49.3354 46.8601 52.4604C45.9888 55.5854 44.513 58.3367 43.4587 61.2616C42.4024 64.1845 40.8313 66.6117 39.4528 69.2677C38.0761 71.9236 36.4097 74.3451 34.749 76.7666C33.0902 79.1899 31.6297 81.5065 29.5533 83.5829C29.5533 83.5829 29.5533 83.5829 29.5533 83.5829Z" fill="none" stroke-width="0.3" stroke="#FED005" transform="translate(0.353 0)" />
    <path id="Path" d="M0 0.124825C0 0.124825 0.045761 0.254471 0 0.315491C2.51298 1.13535 1.72172 4.38051 0.762666 6.03549C0.242147 6.05075 0.259307 4.96966 0 5.27283C0.0724542 5.57599 0.0419469 5.7514 0.190667 6.03549C0.297439 6.18611 0.617761 6.31387 0.762666 6.41682C1.1154 5.85245 1.18404 5.11266 1.716 4.70082C1.716 4.70082 1.70075 4.60358 1.716 4.51015C1.87425 3.55301 2.02679 2.60731 1.716 1.65015C1.50245 1.20972 0.735973 -0.46624 0 0.124825C0 0.124825 0 0.124825 0 0.124825Z" fill="none" stroke-width="0.3" stroke="#B37C13" transform="translate(0.353 112.63)" />
    <path id="Path" d="M0.353101 4.95733C0.612408 4.65416 0.595249 5.73524 1.11577 5.71999C2.07482 4.06501 2.86609 0.819862 0.353101 0C-0.306607 0.888496 0.116673 3.95824 0.353101 4.95733C0.353101 4.95733 0.353101 4.95733 0.353101 4.95733Z" fill="none" stroke-width="0.3" stroke="#A06619" transform="translate(0 112.946)" />
    <path id="Path" d="M0 2.86001C0.663524 2.04395 0.402309 0.833214 0 0C0.31079 0.957153 0.158255 1.90285 0 2.86001C0 2.86001 0 2.86001 0 2.86001Z" fill="none" stroke-width="0.3" stroke="#D39D03" transform="translate(2.069 114.28)" />
    <path id="Path" d="M0 1.33467C0.144906 1.61305 0.337481 1.71028 0.572 1.90668C0.518614 1.57301 1.42428 0.430908 1.52533 0C0.993375 0.411835 0.924735 1.15163 0.572 1.71601C0.427094 1.61305 0.106773 1.4853 0 1.33467C0 1.33467 0 1.33467 0 1.33467Z" fill="none" stroke-width="0.3" stroke="#D09F2A" transform="translate(0.544 117.331)" />
    <path id="Path" d="M29.5533 83.5829C27.8469 85.7451 26.0985 87.8576 24.2623 89.9226C22.4243 91.9875 20.4357 94.0066 18.5423 96.0239C16.649 98.0412 14.5002 99.7686 12.6317 101.744C10.7631 103.719 8.09571 105.304 6.33967 107.273C4.58363 109.243 0.924735 110.19 0 112.755C0.735973 112.164 1.50245 113.84 1.716 114.28C2.11831 115.113 2.37952 116.324 1.716 117.14C1.70075 117.234 1.716 117.331 1.716 117.331C1.61495 117.762 0.70928 118.904 0.762667 119.238C6.006 123.611 14.8243 122.992 21.0153 121.758C27.2081 120.525 33.0216 117.34 38.3679 114.324C43.7141 111.308 47.945 107.937 52.5763 103.937C57.2076 99.9364 60.0752 95.0076 64.2547 90.8282C72.0167 80.3892 79.5785 68.0474 80.8427 54.9829C80.8427 48.7824 80.4118 43.6573 78.5547 38.0136C77.3192 35.4605 75.9845 32.4156 74.3161 30.0494C72.6478 27.6833 70.9356 25.5306 68.8783 23.4752C66.8191 21.4218 64.4415 19.578 62.205 17.9459C59.9666 16.3157 57.0036 15.0878 55.3505 12.7884C53.6994 10.4889 52.0692 7.39059 50.8603 5.0759C49.6534 2.7593 47.4874 -1.57265 44.7495 0.585699C42.0115 2.74214 40.2574 3.49527 37.9999 6.03877C35.7443 8.58417 39.5138 11.652 40.755 14.0372C41.9943 16.4244 44.2213 18.8611 45.4206 21.5743C46.6199 24.2875 47.8993 27.5822 48.2425 30.7644C48.5876 33.9447 49.3331 39.0184 48.7687 42.357C48.2043 45.6955 47.7315 49.3354 46.8601 52.4604C45.9888 55.5854 44.513 58.3367 43.4587 61.2616C42.4024 64.1845 40.8313 66.6117 39.4528 69.2677C38.0761 71.9236 36.4097 74.3451 34.749 76.7666C33.0902 79.1899 31.6297 81.5065 29.5533 83.5829C29.5533 83.5829 29.5533 83.5829 29.5533 83.5829Z" fill="#FED005" transform="translate(0.353 0)" />
    <path id="Path" d="M0 0.124825C0 0.124825 0.045761 0.254471 0 0.315491C2.51298 1.13535 1.72172 4.38051 0.762666 6.03549C0.242147 6.05075 0.259307 4.96966 0 5.27283C0.0724542 5.57599 0.0419469 5.7514 0.190667 6.03549C0.297439 6.18611 0.617761 6.31387 0.762666 6.41682C1.1154 5.85245 1.18404 5.11266 1.716 4.70082C1.716 4.70082 1.70075 4.60358 1.716 4.51015C1.87425 3.55301 2.02679 2.60731 1.716 1.65015C1.50245 1.20972 0.735973 -0.46624 0 0.124825C0 0.124825 0 0.124825 0 0.124825Z" fill="#B37C13" transform="translate(0.353 112.63)" />
    <path id="Path" d="M0.353101 4.95733C0.612408 4.65416 0.595249 5.73524 1.11577 5.71999C2.07482 4.06501 2.86609 0.819862 0.353101 0C-0.306607 0.888496 0.116673 3.95824 0.353101 4.95733C0.353101 4.95733 0.353101 4.95733 0.353101 4.95733Z" fill="#A06619" transform="translate(0 112.946)" />
    <path id="Path" d="M0 2.86001C0.663524 2.04395 0.402309 0.833214 0 0C0.31079 0.957153 0.158255 1.90285 0 2.86001C0 2.86001 0 2.86001 0 2.86001Z" fill="#D39D03" transform="translate(2.069 114.28)" />
    <path id="Path" d="M0 1.33467C0.144906 1.61305 0.337481 1.71028 0.572 1.90668C0.518614 1.57301 1.42428 0.430908 1.52533 0C0.993375 0.411835 0.924735 1.15163 0.572 1.71601C0.427094 1.61305 0.106773 1.4853 0 1.33467C0 1.33467 0 1.33467 0 1.33467Z" fill="#D09F2A" transform="translate(0.544 117.331)" />
  </g>
</svg>